<?xml version="1.0" encoding="iso-8859-1"?>
<!-- Generator: Adobe Illustrator 17.1.0, SVG Export Plug-In . SVG Version: 6.00 Build 0)  -->
<!DOCTYPE svg PUBLIC "-//W3C//DTD SVG 1.1//EN" "http://www.w3.org/Graphics/SVG/1.1/DTD/svg11.dtd">
<svg version="1.1" id="Capa_1" xmlns="http://www.w3.org/2000/svg" xmlns:xlink="http://www.w3.org/1999/xlink" x="0px" y="0px"
	 viewBox="0 0 420.784 420.784" style="enable-background:new 0 0 420.784 420.784;" xml:space="preserve">
<g>
	<path d="M324.109,118.461v99.141c0,59.803-46.762,101.57-113.717,101.57c-66.955,0-113.717-41.767-113.717-101.57v-99.141H59.454
		v99.141c0,40.052,16.026,76.104,45.127,101.515c20.75,18.118,47.21,30.097,76.414,34.9v16.732h-64.112v50.035h187.018v-50.035
		h-66.28v-16.393c30.061-4.558,57.32-16.673,78.582-35.239c29.101-25.411,45.127-61.462,45.127-101.515v-99.141H324.109z"/>
	<path d="M210.39,293.276c52.479,0,95.175-42.702,95.175-95.189V85.292c0-25.408-10.305-47.921-29.015-63.393
		C259.472,7.777,235.976,0,210.39,0s-49.082,7.777-66.16,21.898c-18.71,15.472-29.015,37.985-29.015,63.393v112.795
		C115.216,250.575,157.911,293.276,210.39,293.276z M170.888,42.979v57.048h30V33.127c3.149-0.343,6.326-0.522,9.502-0.522
		c3.124,0,6.249,0.172,9.347,0.504v66.918h30V42.881c13.721,8.491,23.223,22.408,23.223,42.41v56.689H147.821V85.292
		C147.821,65.365,157.251,51.478,170.888,42.979z"/>
</g>
<g>
</g>
<g>
</g>
<g>
</g>
<g>
</g>
<g>
</g>
<g>
</g>
<g>
</g>
<g>
</g>
<g>
</g>
<g>
</g>
<g>
</g>
<g>
</g>
<g>
</g>
<g>
</g>
<g>
</g>
</svg>
