<?xml version="1.0" standalone="no"?>
<!DOCTYPE svg PUBLIC "-//W3C//DTD SVG 20010904//EN"
 "http://www.w3.org/TR/2001/REC-SVG-20010904/DTD/svg10.dtd">
<svg version="1.0" xmlns="http://www.w3.org/2000/svg"
 width="225.000000pt" height="225.000000pt" viewBox="0 0 225.000000 225.000000"
 preserveAspectRatio="xMidYMid meet">

<g transform="translate(0.000000,225.000000) scale(0.100000,-0.100000)"
fill="#000000" stroke="none">
<path d="M825 1944 c-198 -48 -392 -208 -477 -392 -82 -180 -81 -412 2 -588
92 -191 266 -331 481 -385 183 -47 415 0 566 114 l33 24 212 -214 c117 -118
223 -216 236 -220 35 -8 76 26 80 67 3 31 -9 46 -212 249 l-215 216 39 59
c197 297 139 701 -132 927 -77 64 -199 124 -293 144 -88 18 -241 18 -320 -1z
m265 -108 c277 -51 480 -293 480 -573 0 -266 -172 -491 -435 -569 -39 -12 -92
-18 -150 -17 -168 0 -316 69 -436 202 -179 197 -197 481 -45 710 56 83 117
138 206 185 78 41 117 53 195 65 85 12 101 12 185 -3z"/>
</g>
</svg>
