<?xml version="1.0" standalone="no"?>
<!DOCTYPE svg PUBLIC "-//W3C//DTD SVG 20010904//EN"
 "http://www.w3.org/TR/2001/REC-SVG-20010904/DTD/svg10.dtd">
<svg version="1.0" xmlns="http://www.w3.org/2000/svg"
 width="1058.000000pt" height="1296.000000pt" viewBox="0 0 1058.000000 1296.000000"
 preserveAspectRatio="xMidYMid meet">

<g transform="translate(0.000000,1296.000000) scale(0.100000,-0.100000)"
fill="#000000" stroke="none">
<path d="M3212 12795 c-91 -43 -172 -96 -166 -107 8 -13 90 1 167 29 38 14 71
22 74 20 9 -9 -186 -215 -248 -261 -65 -49 -91 -55 -127 -30 -20 14 -25 13
-57 -2 -98 -46 -295 -261 -295 -321 0 -13 -4 -21 -10 -18 -5 3 -10 1 -10 -4 0
-22 34 -10 123 44 91 56 132 73 144 61 8 -7 -69 -209 -113 -297 -36 -73 -85
-142 -149 -209 -55 -58 -171 -232 -223 -335 -62 -123 -83 -238 -52 -295 17
-31 79 -27 137 9 37 23 54 42 73 83 54 116 154 269 235 360 75 84 116 150 160
264 20 49 44 111 55 138 l19 48 -45 77 -45 76 39 35 c22 20 56 44 76 55 34 19
37 19 65 2 16 -9 36 -17 44 -17 29 0 163 116 238 206 108 129 106 126 83 118
-18 -7 -18 -6 1 16 l20 23 -25 -13 c-25 -13 -25 -13 -7 8 18 20 18 20 -4 15
-21 -6 -22 -5 -7 16 16 23 14 61 -4 61 -5 0 -6 5 -3 10 3 6 2 10 -3 10 -5 0
-9 6 -9 14 0 21 -24 76 -34 76 -5 0 -6 7 -3 15 5 12 2 14 -12 8 -17 -6 -18 -5
-4 12 14 17 13 17 -10 10 -24 -7 -24 -7 -5 9 35 28 -5 19 -83 -19z"/>
<path d="M7431 12707 c13 -11 424 -269 478 -301 35 -20 68 -35 74 -33 11 3
-56 52 -108 77 -16 8 -64 39 -105 68 -41 30 -91 62 -110 73 -19 11 -42 23 -50
29 -72 45 -156 90 -169 90 -8 0 -12 -2 -10 -3z"/>
<path d="M6912 12592 c-9 -3 -2 -11 17 -23 17 -10 44 -40 60 -66 69 -113 116
-145 219 -149 75 -2 83 11 10 19 -29 3 -66 13 -83 22 -30 18 -105 105 -105
122 0 28 -90 85 -118 75z"/>
<path d="M5470 12561 c68 -10 71 -14 64 -84 -5 -54 -3 -66 16 -89 24 -31 119
-65 148 -53 12 5 3 11 -31 20 -69 18 -78 30 -83 116 -5 90 -15 100 -98 98 -60
-2 -60 -2 -16 -8z"/>
<path d="M2633 12455 c-18 -8 -33 -18 -33 -22 0 -5 -44 -45 -97 -90 -126 -106
-385 -367 -355 -358 12 3 91 76 175 162 149 152 185 180 262 197 28 7 25 2
-35 -59 -51 -53 -60 -66 -40 -60 29 8 167 141 157 151 -4 4 -32 0 -62 -8 -30
-8 -55 -13 -55 -9 0 3 27 28 60 54 74 61 77 66 23 42z"/>
<path d="M6380 12433 c1 -28 123 -184 204 -260 99 -93 224 -161 296 -162 32 0
27 4 -50 40 -147 69 -260 172 -400 367 -26 35 -50 42 -50 15z"/>
<path d="M5038 12328 c5 -112 13 -145 38 -155 32 -12 167 69 177 107 7 26 -23
51 -125 104 -48 25 -89 46 -91 46 -1 0 -1 -46 1 -102z"/>
<path d="M8044 12383 c3 -4 -3 -12 -15 -19 -22 -12 -22 -12 9 -28 28 -15 62
-13 62 3 0 16 -33 51 -47 51 -9 0 -13 -3 -9 -7z"/>
<path d="M7522 12326 l-203 -51 23 -21 c15 -14 83 -38 193 -68 94 -26 186 -55
205 -65 33 -17 36 -23 51 -97 23 -108 58 -190 124 -290 55 -82 86 -111 105
-99 5 3 -10 45 -35 94 -56 113 -85 199 -85 254 0 53 17 71 83 88 26 7 47 16
47 19 0 3 -20 16 -44 28 -34 16 -52 19 -74 13 -23 -7 -46 -2 -112 26 -97 40
-161 80 -139 87 111 38 174 44 205 21 10 -8 28 -14 39 -14 17 0 16 3 -10 25
-49 41 -146 104 -159 103 -6 0 -102 -24 -214 -53z"/>
<path d="M7298 12363 c7 -3 16 -2 19 1 4 3 -2 6 -13 5 -11 0 -14 -3 -6 -6z"/>
<path d="M7348 12363 c12 -2 32 -2 45 0 12 2 2 4 -23 4 -25 0 -35 -2 -22 -4z"/>
<path d="M8260 12286 c0 -2 8 -10 18 -17 15 -13 16 -12 3 4 -13 16 -21 21 -21
13z"/>
<path d="M6170 12243 c0 -77 -51 -203 -126 -310 l-54 -77 22 -23 c12 -13 27
-23 34 -23 13 0 60 70 95 143 13 26 26 47 29 47 4 0 44 -70 89 -155 46 -85 87
-158 92 -161 14 -8 60 28 57 45 -2 9 -50 93 -107 188 l-103 172 11 48 c6 26
12 66 13 88 3 37 1 40 -24 43 -25 3 -28 0 -28 -25z"/>
<path d="M8300 12256 c0 -2 8 -10 18 -17 15 -13 16 -12 3 4 -13 16 -21 21 -21
13z"/>
<path d="M2770 12196 c0 -2 7 -6 15 -10 8 -3 15 -1 15 4 0 6 -7 10 -15 10 -8
0 -15 -2 -15 -4z"/>
<path d="M7045 12190 c-23 -9 -115 -112 -115 -129 0 -23 43 -9 74 23 111 121
107 116 79 115 -10 0 -27 -4 -38 -9z"/>
<path d="M5616 12060 l-190 -97 2 -148 c1 -81 3 -150 5 -152 2 -2 19 7 38 20
27 18 34 30 33 53 -1 16 -3 65 -5 109 l-2 80 134 72 c74 39 139 72 146 72 18
1 27 -61 27 -184 0 -162 -46 -295 -163 -470 -64 -96 -66 -101 -36 -137 14 -16
25 -34 25 -39 0 -23 27 -5 52 34 78 123 153 313 179 449 16 85 16 225 0 328
-14 86 -24 111 -45 109 -6 -1 -96 -46 -200 -99z"/>
<path d="M7150 12151 c0 -5 19 -19 43 -31 79 -41 167 -111 205 -163 58 -80 84
-129 86 -162 1 -25 6 -30 26 -30 79 0 -20 182 -158 290 -86 68 -202 123 -202
96z"/>
<path d="M8335 12150 c-3 -5 -2 -16 2 -24 5 -9 113 -122 241 -252 128 -130
232 -238 230 -239 -2 -1 -22 -12 -45 -24 -42 -21 -89 -63 -150 -134 -69 -79
-28 -162 130 -267 102 -68 118 -90 97 -132 -19 -35 -98 -105 -128 -113 -85
-20 -102 -27 -96 -37 5 -7 31 -9 78 -5 55 5 79 12 110 34 90 64 124 145 80
194 -10 12 -58 48 -105 79 -79 54 -137 108 -140 131 -1 5 -2 15 -3 22 -5 32
91 147 158 188 31 19 116 27 116 11 0 -5 63 -73 140 -151 76 -77 160 -170 185
-205 59 -83 115 -177 115 -192 0 -22 -34 -20 -76 3 -37 21 -42 21 -62 7 -27
-19 -28 -52 -3 -121 67 -184 314 -518 357 -482 7 6 10 17 7 24 -3 8 2 21 10
29 11 11 13 32 10 79 -3 47 0 67 10 76 12 9 17 6 25 -16 6 -16 14 -44 17 -63
4 -19 27 -96 52 -170 24 -74 62 -203 83 -287 l39 -151 -75 -126 c-95 -159
-109 -214 -75 -303 19 -50 98 -153 118 -153 13 0 32 -36 33 -61 0 -26 -57
-122 -101 -170 -30 -32 -59 -50 -132 -79 -41 -16 -57 -27 -55 -39 8 -44 144
-7 212 57 50 48 113 145 127 195 18 67 5 100 -65 170 -87 86 -99 109 -94 171
4 43 17 73 82 177 83 136 135 195 160 186 25 -10 19 -35 -18 -80 -18 -23 -44
-62 -56 -87 l-22 -44 22 -156 c12 -85 31 -180 41 -211 12 -37 16 -70 12 -100
-7 -52 -6 -201 3 -349 l6 -106 -41 4 c-69 7 -149 -59 -197 -162 -27 -59 -30
-105 -9 -146 31 -60 125 -41 199 41 l36 39 0 -39 c0 -44 -14 -59 -177 -190
-51 -41 -93 -78 -93 -82 0 -3 7 -12 15 -19 16 -13 21 -10 129 84 31 27 58 47
60 45 3 -2 12 -42 22 -89 15 -75 16 -98 5 -194 -14 -127 -52 -357 -83 -505
-19 -91 -25 -105 -47 -115 -14 -6 -33 -18 -42 -26 -9 -8 -49 -37 -90 -65 -40
-27 -103 -75 -139 -105 -37 -30 -120 -98 -184 -150 -101 -82 -176 -164 -176
-192 0 -31 -87 42 -96 81 -4 14 -10 31 -14 36 -21 31 -31 109 -31 257 0 90 2
183 5 208 3 25 8 75 11 112 5 54 14 78 42 121 41 62 66 79 157 108 56 17 75
18 122 10 95 -18 135 18 158 139 23 117 8 276 -32 359 -33 69 -103 144 -129
139 -33 -6 -28 -52 12 -107 61 -84 78 -148 79 -286 1 -154 -10 -187 -66 -204
-26 -8 -59 -10 -92 -5 -68 10 -92 7 -151 -21 -63 -30 -95 -59 -139 -128 -38
-59 -51 -114 -62 -267 -20 -269 -4 -471 41 -530 6 -8 21 -32 34 -54 26 -46 26
-45 -74 -125 -141 -112 -356 -203 -668 -280 -150 -37 -207 -60 -207 -81 0 -17
44 -11 197 25 410 98 659 217 833 397 30 32 64 67 75 78 11 11 70 60 130 108
61 48 160 126 220 175 195 156 317 226 337 195 17 -28 7 -47 -35 -66 l-43 -19
-28 -104 c-97 -362 -279 -835 -457 -1191 -33 -65 -59 -122 -59 -128 0 -5 10
-12 23 -15 19 -5 26 -19 42 -88 40 -166 12 -370 -62 -451 -111 -121 -76 -97
171 118 215 187 272 233 281 224 5 -5 -125 -124 -432 -396 -99 -88 -102 -93
-196 -292 -47 -98 -61 -138 -65 -187 -5 -66 -26 -99 -55 -87 -39 15 -23 93 54
259 33 71 62 138 64 148 4 20 50 81 84 111 11 10 18 22 16 26 -3 5 12 43 33
87 34 73 37 85 39 180 2 83 -2 115 -20 171 -13 39 -29 78 -37 87 -13 15 -12
19 8 35 22 18 31 60 12 60 -5 0 -10 -4 -10 -10 0 -5 -7 -7 -15 -4 -8 4 -15 2
-15 -4 0 -6 -14 -13 -30 -17 -45 -10 -139 -85 -277 -219 -109 -105 -141 -146
-115 -146 21 0 92 56 192 150 105 99 185 159 196 148 3 -3 -5 -22 -16 -41 -16
-27 -19 -40 -11 -55 8 -16 -3 -40 -62 -138 -107 -175 -243 -375 -361 -532 -87
-115 -111 -141 -148 -157 -23 -10 -63 -27 -88 -38 -25 -11 -96 -39 -159 -63
-118 -45 -161 -68 -161 -84 0 -16 20 -12 126 24 312 107 534 220 713 364 35
29 69 52 74 52 5 0 -10 -24 -35 -52 -59 -71 -237 -189 -424 -283 -149 -75
-152 -77 -228 -164 -111 -128 -452 -461 -586 -572 -244 -203 -447 -348 -689
-493 -227 -136 -618 -327 -676 -330 -14 -1 -21 -9 -23 -26 -4 -33 -58 -55
-182 -74 -52 -8 -152 -31 -223 -50 -237 -66 -318 -79 -421 -71 -98 8 -136 8
-144 0 -3 -3 4 -5 16 -5 36 0 34 -18 -3 -22 -19 -2 -35 -1 -35 3 0 4 -12 9
-27 11 -14 2 -28 8 -30 15 -5 14 48 29 132 38 33 4 134 17 225 30 399 58 587
86 615 92 l30 6 -30 8 c-62 17 -64 69 -6 167 49 84 128 114 359 137 168 17
235 37 295 86 42 34 77 95 77 132 0 61 -86 105 -146 75 -24 -12 -35 -33 -16
-33 22 -1 43 -25 48 -56 5 -27 -1 -43 -28 -84 -18 -27 -44 -55 -58 -61 -14 -7
-81 -17 -150 -24 -191 -17 -336 -56 -428 -114 -65 -41 -125 -189 -91 -223 8
-8 -3 -14 -42 -22 -78 -16 -488 -77 -677 -101 -166 -21 -212 -32 -212 -50 0
-10 11 -13 85 -26 77 -13 6 -23 -167 -23 -105 -1 -168 -5 -168 -11 0 -6 -32
-11 -72 -12 l-73 -1 65 -8 c227 -28 1050 -10 999 21 -8 6 7 14 45 25 32 9 60
14 63 11 3 -3 -2 -8 -11 -12 -33 -13 -16 -26 27 -19 595 91 1088 242 1582 485
286 140 534 290 775 468 168 124 238 191 224 214 -8 13 15 48 126 188 110 139
209 240 232 240 7 -1 -3 -15 -23 -33 -76 -67 -317 -377 -293 -377 4 0 1 -7 -6
-15 -7 -8 -8 -15 -3 -15 13 0 65 55 58 62 -3 2 5 13 17 24 l23 19 -19 -22
c-32 -38 -2 -26 35 14 18 20 25 31 14 23 -18 -14 -19 -14 -6 2 7 10 17 16 21
13 5 -3 21 7 37 21 15 15 19 20 8 13 -18 -13 -19 -13 -6 3 7 10 16 16 20 13
11 -6 336 327 442 455 180 216 334 432 471 660 81 135 233 420 224 420 -3 0
-15 -18 -26 -40 -11 -22 -23 -40 -25 -40 -3 0 13 37 36 82 25 49 41 95 41 117
0 19 10 58 23 85 36 80 131 247 137 240 3 -3 10 8 16 25 6 16 8 31 5 34 -2 3
4 22 15 44 26 50 83 227 127 394 37 141 41 164 26 155 -5 -3 -9 43 -9 107 0
120 38 371 59 391 9 8 10 5 6 -14 -14 -57 -37 -220 -42 -290 -3 -41 -7 -91 -9
-110 -3 -19 0 -44 5 -55 9 -19 9 -18 5 3 -2 12 0 22 5 22 5 0 7 12 5 27 -3 15
-1 32 5 39 5 6 9 16 8 20 -1 5 0 16 4 24 7 18 33 160 46 250 39 268 62 747 39
823 -9 28 -8 43 1 60 21 39 -19 486 -64 728 -31 166 -75 365 -95 429 l-19 65
6 -65 c3 -36 6 -69 6 -75 0 -35 -4 -55 -12 -55 -4 0 -11 53 -14 118 -4 64 -9
135 -11 157 -4 37 -105 343 -139 424 -14 34 -15 34 -22 10 -4 -13 -14 -32 -22
-41 -13 -15 -8 -37 48 -205 34 -103 77 -226 96 -272 42 -104 38 -142 -5 -49
-25 55 -192 541 -192 560 0 3 9 8 20 11 11 3 24 17 30 32 15 39 -14 116 -135
360 -150 301 -296 541 -483 791 -148 200 -303 377 -310 356 -1 -5 26 -50 61
-98 110 -154 204 -313 303 -511 l96 -193 -15 -37 c-8 -21 -13 -54 -11 -73 2
-19 6 -59 9 -88 6 -52 6 -53 -14 -43 -30 16 -148 169 -209 269 -55 92 -95 185
-90 211 4 21 48 28 48 7 0 -9 14 -22 30 -31 27 -14 30 -14 30 0 0 10 9 15 26
15 24 0 26 2 20 32 -9 43 -73 150 -148 245 -70 90 -299 318 -414 413 -110 91
-432 411 -439 436 -6 24 15 26 52 6 14 -8 24 -9 28 -2 3 6 -2 13 -12 17 -10 3
-40 14 -66 25 -56 21 -54 21 -62 8z m995 -1160 c0 -5 -7 -7 -15 -4 -8 4 -15 8
-15 10 0 2 7 4 15 4 8 0 15 -4 15 -10z m403 -428 c132 -197 257 -450 257 -518
0 -41 -13 -20 -45 71 -48 138 -142 308 -263 472 -32 43 -63 90 -69 106 -13 27
-13 27 11 11 14 -8 63 -72 109 -142z m612 -1582 c-3 -4 2 -57 9 -116 8 -60 22
-172 31 -249 9 -77 18 -153 20 -170 2 -16 7 -52 10 -80 5 -34 3 -47 -3 -40 -6
6 -25 127 -42 270 -41 344 -46 410 -31 401 6 -4 9 -11 6 -16z m-445 -180 c46
-25 31 -118 -30 -179 -51 -51 -97 -62 -123 -30 -39 48 0 140 83 197 37 25 44
26 70 12z m501 -602 c-32 -83 -92 -221 -142 -327 -33 -69 -59 -138 -59 -155 0
-17 12 -51 26 -76 55 -97 18 -236 -117 -436 -68 -101 -222 -234 -245 -211 -10
10 36 66 68 83 87 45 239 252 275 373 19 65 13 105 -22 157 -46 68 -36 114 78
345 53 108 97 201 97 207 0 10 38 62 45 62 3 0 1 -10 -4 -22z m-446 -668 c26
-50 18 -100 -55 -354 -31 -106 -43 -127 -61 -109 -18 18 -12 74 20 166 26 77
44 152 45 197 1 8 -5 25 -12 37 -20 32 3 93 34 93 7 0 20 -13 29 -30z m-214
-1807 c-72 -139 -136 -246 -149 -251 -17 -5 -7 18 46 108 64 109 102 187 102
209 0 11 8 27 18 37 34 35 25 -20 -17 -103z m108 20 c-45 -77 -131 -191 -171
-229 -36 -34 -35 -31 13 26 30 36 81 105 113 153 61 90 85 116 45 50z m-484
-650 c-16 -91 -229 -383 -310 -425 -11 -6 12 23 52 64 111 119 213 281 213
341 0 21 26 57 43 57 5 0 6 -16 2 -37z m-113 -70 c-16 -29 -243 -247 -290
-278 -68 -45 -59 -22 15 38 37 30 115 103 172 161 101 101 124 119 103 79z
m-622 -817 c0 -2 -8 -10 -17 -17 -16 -13 -17 -12 -4 4 13 16 21 21 21 13z
m-140 -110 c0 -2 -8 -10 -17 -17 -16 -13 -17 -12 -4 4 13 16 21 21 21 13z
m-40 -30 c0 -2 -8 -10 -17 -17 -16 -13 -17 -12 -4 4 13 16 21 21 21 13z m-92
-69 c-29 -24 -98 -66 -86 -52 10 11 102 74 108 74 3 0 -7 -10 -22 -22z m-98
-62 c0 -10 -200 -121 -327 -182 -125 -60 -173 -71 -173 -43 0 5 28 30 63 56
34 26 81 66 103 90 38 40 74 57 74 35 0 -12 -73 -78 -152 -136 -37 -27 -65
-51 -63 -53 6 -6 337 157 410 201 63 39 65 40 65 32z m-410 -109 c0 -2 -82
-36 -182 -76 -211 -84 -359 -152 -378 -174 -11 -14 -7 -16 31 -16 60 0 76 -11
52 -35 -28 -29 -225 -118 -373 -170 -126 -44 -464 -135 -502 -135 -26 0 -22
-19 7 -32 34 -15 31 -32 -10 -57 -39 -22 -165 -64 -173 -56 -3 2 4 7 14 11 65
23 104 45 104 59 0 10 -19 24 -46 37 -25 11 -42 23 -38 28 5 4 72 20 149 35
259 49 458 107 644 186 137 59 163 75 141 89 -8 5 -31 10 -50 10 -101 1 -57
38 155 132 259 114 455 185 455 164z m-1540 -750 c0 -2 -7 -7 -16 -10 -8 -3
-12 -2 -9 4 6 10 25 14 25 6z m-60 -16 c-8 -5 -19 -10 -25 -10 -5 0 -3 5 5 10
8 5 20 10 25 10 6 0 3 -5 -5 -10z m-85 -10 c3 -5 1 -10 -4 -10 -6 0 -11 5 -11
10 0 6 2 10 4 10 3 0 8 -4 11 -10z m-51 -11 c-3 -5 -14 -9 -25 -9 -10 0 -19 4
-19 9 0 5 11 9 25 9 13 0 22 -4 19 -9z m-84 -7 c0 -4 -12 -9 -27 -10 -22 -1
-24 0 -13 8 18 12 40 13 40 2z m-472 -14 c-6 -17 -54 -26 -173 -33 -66 -3 -93
-2 -80 4 11 5 36 10 55 10 57 2 110 13 104 22 -3 5 18 9 46 9 36 0 50 -4 48
-12z m-303 -38 c4 -6 -44 -10 -137 -10 -96 0 -138 3 -128 10 20 13 257 13 265
0z"/>
<path d="M1878 11939 c-37 -36 -44 -46 -23 -34 29 18 46 33 74 68 26 33 2 17
-51 -34z"/>
<path d="M7153 11790 c-40 -16 -65 -87 -44 -128 5 -9 13 -28 19 -42 119 -282
228 -446 367 -547 l30 -21 -24 -26 c-42 -45 -160 -99 -306 -140 -42 -12 -45
-14 -20 -15 55 -1 209 36 275 67 72 34 150 95 150 118 0 7 -14 21 -32 30 -18
9 -71 56 -118 103 -91 92 -141 173 -236 381 -55 122 -59 164 -20 193 14 10 26
23 26 28 0 11 -38 11 -67 -1z"/>
<path d="M7319 11740 c14 -6 52 -13 85 -16 49 -4 56 -2 37 6 -14 6 -52 13 -85
16 -49 4 -56 2 -37 -6z"/>
<path d="M4993 11700 c-18 -4 -64 -31 -103 -59 -39 -28 -73 -51 -75 -51 -3 0
-23 -11 -44 -25 -57 -35 -121 -50 -163 -36 -38 13 -110 74 -128 109 -20 40
-21 19 -4 -59 28 -127 74 -203 146 -240 73 -38 131 -21 262 73 79 58 123 78
166 78 42 0 101 -32 136 -73 53 -62 64 -77 64 -86 0 -5 7 -14 15 -21 13 -10
15 -9 16 11 4 76 -9 193 -21 197 -6 2 -10 8 -10 14 0 20 -85 116 -125 141 -47
30 -88 38 -132 27z"/>
<path d="M4451 11684 c0 -11 3 -14 6 -6 3 7 2 16 -1 19 -3 4 -6 -2 -5 -13z"/>
<path d="M4871 11675 c-39 -23 -118 -85 -107 -85 15 0 156 95 156 106 0 6 -2
5 -49 -21z"/>
<path d="M8998 11563 c6 -2 18 -2 25 0 6 3 1 5 -13 5 -14 0 -19 -2 -12 -5z"/>
<path d="M1344 11438 l-19 -23 25 20 c14 11 27 21 29 22 2 2 0 3 -6 3 -5 0
-18 -10 -29 -22z"/>
<path d="M8095 11333 c-126 -26 -424 -161 -457 -208 -29 -40 18 -32 113 22
163 90 310 148 427 168 24 4 42 9 39 11 -6 6 -99 11 -122 7z"/>
<path d="M8284 11268 c57 -40 64 -50 80 -112 9 -36 16 -78 16 -93 0 -50 20
-102 52 -133 39 -39 67 -50 126 -49 l47 0 -50 24 c-76 36 -115 91 -115 164 0
15 -7 54 -15 86 -20 78 -56 115 -116 121 -38 4 -42 3 -25 -8z"/>
<path d="M4918 11193 c7 -3 16 -2 19 1 4 3 -2 6 -13 5 -11 0 -14 -3 -6 -6z"/>
<path d="M4968 11183 c6 -2 18 -2 25 0 6 3 1 5 -13 5 -14 0 -19 -2 -12 -5z"/>
<path d="M2720 11149 c6 -18 10 -62 10 -96 0 -55 -6 -80 -40 -168 -29 -76 -81
-162 -118 -197 -41 -37 -47 -40 -91 -36 -25 3 -72 17 -104 31 -89 41 -140 34
-217 -30 -49 -41 -184 -348 -225 -512 -27 -112 -2 -271 43 -271 23 0 171 49
150 50 -15 0 -16 8 -12 53 12 114 99 350 149 403 28 30 59 76 61 91 5 29 45
71 76 78 65 14 153 11 215 -8 l63 -20 39 26 c31 21 49 46 85 119 24 51 48 105
51 121 4 15 12 30 17 33 5 3 8 38 7 77 -2 69 -14 110 -41 139 -7 7 -35 40 -62
73 -27 33 -53 64 -58 69 -4 5 -3 -6 2 -25z"/>
<path d="M4925 11166 c71 -19 125 -26 125 -17 0 8 -123 32 -157 30 -10 0 5 -6
32 -13z"/>
<path d="M5018 11173 c7 -3 16 -2 19 1 4 3 -2 6 -13 5 -11 0 -14 -3 -6 -6z"/>
<path d="M5935 11159 c-156 -51 -284 -137 -300 -199 -9 -39 30 -87 115 -138
97 -58 170 -119 170 -142 0 -31 -90 -99 -205 -156 -118 -58 -118 -69 2 -29
137 46 273 141 273 190 0 29 -57 81 -150 135 -94 55 -129 87 -136 128 -6 30
-2 37 41 79 46 43 213 133 249 133 8 0 18 5 21 10 9 14 -12 12 -80 -11z"/>
<path d="M5088 11163 c18 -2 45 -2 60 0 15 2 0 4 -33 4 -33 0 -45 -2 -27 -4z"/>
<path d="M6440 11161 c0 -5 9 -13 20 -16 31 -10 35 -51 12 -124 -31 -95 -33
-130 -10 -174 24 -48 88 -80 151 -75 l42 3 -46 21 c-88 41 -108 105 -69 217
28 78 26 111 -6 136 -27 21 -94 29 -94 12z"/>
<path d="M3621 11142 c-8 -15 -1 -35 31 -90 23 -40 46 -68 50 -64 5 5 -10 39
-32 76 -23 38 -39 74 -36 82 8 20 -2 17 -13 -4z"/>
<path d="M1637 11009 c-44 -23 -53 -39 -38 -67 16 -29 -79 -232 -119 -255 -34
-20 -89 -22 -96 -4 -3 8 25 76 62 152 62 131 65 139 48 152 -33 24 -118 -6
-152 -54 -22 -31 -162 -296 -162 -306 0 -28 82 29 111 77 25 41 24 49 -6 42
l-26 -7 22 43 c60 121 93 167 128 181 39 16 61 12 61 -9 0 -8 -27 -68 -60
-134 -33 -66 -60 -129 -60 -139 0 -44 65 -48 142 -9 45 22 54 34 109 156 42
92 42 94 25 122 -16 28 -16 29 3 39 14 8 22 7 31 -4 10 -13 16 -12 42 1 l30
16 -27 14 c-15 8 -28 14 -29 14 0 -1 -18 -10 -39 -21z m-371 -317 c-13 -26
-46 -51 -46 -36 0 21 49 79 58 69 2 -2 -3 -17 -12 -33z"/>
<path d="M7646 11001 c-11 -17 8 -46 85 -126 43 -44 91 -98 108 -120 16 -22
37 -49 47 -59 29 -32 72 -128 84 -189 13 -64 6 -129 -17 -166 -19 -30 -2 -43
38 -29 43 15 52 33 57 116 3 65 0 87 -22 145 -36 96 -111 199 -237 327 -101
103 -130 123 -143 101z"/>
<path d="M9048 10844 c-93 -48 -101 -110 -23 -191 l44 -46 72 7 c79 7 99 -1
99 -41 0 -67 -85 -149 -189 -183 -109 -35 -153 -15 -176 77 -9 35 -17 49 -32
51 -45 7 -36 -99 14 -158 77 -92 217 -92 345 0 71 50 100 96 101 159 1 54 -32
123 -74 154 -24 17 -31 18 -83 6 -52 -11 -59 -11 -84 8 -15 11 -28 29 -30 40
-4 27 40 62 89 69 44 7 54 23 33 53 -19 27 -48 26 -106 -5z"/>
<path d="M4720 10451 c0 -6 5 -13 10 -16 6 -3 10 -17 10 -31 0 -23 -2 -24 -77
-24 -42 0 -74 -2 -72 -4 9 -8 210 -12 215 -5 3 5 -14 27 -37 49 -45 43 -49 45
-49 31z"/>
<path d="M4488 10363 c6 -2 18 -2 25 0 6 3 1 5 -13 5 -14 0 -19 -2 -12 -5z"/>
<path d="M9228 10359 c-39 -22 -10 -99 38 -99 45 0 59 55 24 90 -22 22 -37 24
-62 9z"/>
<path d="M4765 10340 c-4 -6 9 -36 29 -65 20 -30 36 -59 36 -65 0 -5 4 -10 8
-10 5 0 14 -16 22 -35 8 -19 17 -35 22 -35 4 0 8 -6 8 -12 0 -7 9 -24 20 -38
11 -14 20 -31 20 -37 0 -7 11 -36 25 -65 33 -72 44 -129 39 -201 -8 -99 -43
-184 -103 -249 l-25 -28 26 0 c64 0 139 99 162 215 20 99 11 170 -35 273 -50
110 -52 115 -81 159 -15 23 -28 44 -28 47 0 12 -93 146 -101 146 -4 0 -14 3
-22 6 -8 3 -18 0 -22 -6z"/>
<path d="M7521 10339 c-101 -40 -138 -134 -112 -285 15 -84 42 -150 95 -229
102 -154 233 -245 295 -206 10 7 0 18 -41 43 -61 40 -115 98 -183 198 -56 82
-72 126 -87 232 -17 123 8 185 93 223 21 10 39 22 39 27 0 11 -69 9 -99 -3z"/>
<path d="M7050 10305 c-30 -13 -81 -31 -112 -40 -69 -19 -75 -35 -14 -35 70 0
74 -12 47 -143 -36 -177 -84 -377 -91 -377 -5 0 -194 137 -228 165 -4 3 74
220 91 253 11 24 46 56 83 78 11 7 16 15 12 19 -4 5 -43 -6 -85 -22 -43 -17
-101 -36 -130 -43 -29 -6 -58 -19 -65 -28 -12 -14 -9 -15 28 -9 75 12 93 -31
51 -125 -9 -18 -19 -46 -24 -61 l-8 -28 -83 61 c-45 34 -82 68 -82 76 0 7 19
26 43 41 37 24 39 28 20 31 -12 2 -42 -5 -65 -16 -24 -10 -88 -31 -143 -46
-131 -36 -125 -34 -125 -47 0 -7 13 -9 39 -4 51 8 97 -11 180 -78 36 -29 89
-70 118 -92 l52 -38 -21 -51 c-11 -28 -32 -81 -46 -118 -27 -69 -35 -77 -63
-55 -21 16 -115 97 -143 122 -12 11 -70 60 -129 109 -92 76 -108 94 -105 115
2 18 14 32 40 46 21 11 38 26 38 33 0 15 10 17 -106 -21 -54 -19 -143 -44
-197 -57 -107 -25 -124 -45 -35 -41 62 3 111 -17 163 -66 17 -15 59 -53 95
-83 36 -30 72 -61 81 -70 9 -8 25 -22 35 -30 11 -9 72 -62 137 -118 65 -56
125 -102 132 -102 15 0 47 55 70 119 7 20 21 56 32 81 12 25 30 68 41 95 12
28 26 49 32 47 6 -1 67 -46 136 -99 98 -75 130 -94 142 -87 22 14 65 179 139
524 33 154 42 176 78 201 65 44 34 52 -55 14z"/>
<path d="M9092 10284 c-12 -8 -22 -26 -22 -40 0 -26 31 -64 53 -64 24 0 57 31
57 54 0 48 -50 77 -88 50z"/>
<path d="M7679 10279 c-7 -4 14 -12 46 -19 39 -8 60 -9 68 -1 7 7 2 11 -14 15
-49 10 -89 12 -100 5z"/>
<path d="M2798 10023 c6 -2 18 -2 25 0 6 3 1 5 -13 5 -14 0 -19 -2 -12 -5z"/>
<path d="M2905 10000 c22 -9 65 -55 65 -69 0 -24 -86 -165 -130 -213 -8 -9
-28 -42 -45 -73 -27 -53 -28 -58 -14 -83 15 -28 48 -48 90 -56 13 -3 24 -5 24
-6 0 -1 16 -3 35 -5 19 -2 25 -1 13 2 -32 6 -29 33 12 89 19 27 48 67 64 89
15 22 41 64 56 93 33 63 28 84 -31 129 -20 15 -57 47 -83 70 -25 24 -53 42
-61 42 -10 0 -8 -3 5 -9z"/>
<path d="M8124 9941 c-48 -12 -112 -62 -189 -146 -83 -92 -92 -105 -75 -115
25 -16 58 6 146 97 50 53 112 106 139 121 28 15 50 32 50 37 0 13 -31 15 -71
6z"/>
<path d="M2894 9877 c-28 -42 -46 -77 -40 -77 3 0 13 14 22 32 9 18 23 38 30
46 12 11 19 32 12 32 -2 0 -13 -15 -24 -33z"/>
<path d="M8217 9873 c-14 -13 -6 -30 46 -89 177 -207 266 -352 292 -475 31
-147 17 -209 -70 -294 -100 -99 -239 -167 -445 -220 -114 -29 -365 -75 -411
-75 -39 -1 -87 -24 -71 -34 14 -8 159 8 342 39 294 50 476 119 623 236 104 83
127 127 127 241 0 176 -70 316 -290 580 -69 83 -120 115 -143 91z"/>
<path d="M2800 9740 c-9 -6 -10 -10 -3 -10 6 0 15 5 18 10 8 12 4 12 -15 0z"/>
<path d="M4284 9526 c-47 -22 -105 -80 -132 -132 -18 -34 -42 -164 -42 -225 0
-92 85 -282 153 -342 49 -42 96 -52 59 -11 -22 24 -63 82 -78 109 -50 94 -54
104 -54 124 0 11 -4 22 -9 25 -28 18 -16 195 20 291 23 62 112 165 143 165 9
0 16 5 16 10 0 16 -21 12 -76 -14z"/>
<path d="M9204 9491 c-131 -42 -428 -226 -469 -291 -14 -22 -25 -42 -25 -45 0
-16 38 5 179 99 209 139 316 191 434 211 22 3 37 12 37 20 0 29 -75 32 -156 6z"/>
<path d="M3183 9493 c9 -2 23 -2 30 0 6 3 -1 5 -18 5 -16 0 -22 -2 -12 -5z"/>
<path d="M9353 9434 c-8 -4 -3 -17 14 -42 24 -36 25 -40 17 -142 -15 -216 -8
-257 50 -295 21 -14 31 -14 65 -4 39 12 57 39 26 39 -8 0 -29 13 -47 29 l-33
30 4 83 c3 46 5 122 5 170 1 78 -1 89 -23 112 -23 24 -50 31 -78 20z"/>
<path d="M795 9356 c-52 -23 -85 -81 -85 -148 0 -55 90 -109 117 -72 22 30 15
49 -19 59 -67 20 -38 97 36 97 45 0 118 -40 184 -102 29 -28 57 -50 63 -50 13
0 -43 79 -105 147 -74 82 -122 99 -191 69z"/>
<path d="M7105 9160 c-27 -4 -85 -12 -128 -19 -211 -29 -501 -161 -604 -272
-35 -38 -55 -94 -43 -123 13 -35 63 -81 129 -118 31 -18 82 -54 114 -81 48
-42 57 -55 57 -83 0 -30 -7 -39 -77 -88 -147 -104 -333 -178 -504 -200 -19 -3
-54 -9 -79 -15 -25 -5 -72 -12 -105 -15 -33 -4 -96 -11 -140 -16 -44 -5 -111
-12 -148 -14 -78 -5 -108 -20 -37 -18 173 3 403 26 585 58 119 21 120 21 218
55 199 69 387 198 387 266 0 35 -70 98 -185 166 -85 51 -116 81 -125 122 -10
44 14 83 85 138 88 68 332 177 450 201 17 4 41 9 55 11 14 3 70 12 124 21 119
18 156 34 76 32 -30 0 -77 -4 -105 -8z"/>
<path d="M741 9084 c-37 -26 -61 -90 -60 -164 l1 -65 12 50 c22 90 28 95 101
95 l65 0 0 -47 c0 -26 -5 -62 -12 -80 -12 -33 -13 -33 -75 -33 l-63 0 -15 -37
c-10 -25 -12 -39 -5 -43 7 -4 -2 -33 -24 -81 -57 -123 -61 -113 48 -127 109
-14 199 -44 234 -79 13 -13 27 -22 29 -19 3 3 10 48 14 99 8 79 31 175 64 260
5 13 2 17 -14 17 -13 0 -21 6 -21 18 0 37 31 145 55 192 l25 50 -60 0 -61 0
-18 -42 -18 -43 29 -26 c29 -28 34 -56 22 -118 -6 -30 -7 -31 -65 -31 -62 0
-65 3 -50 44 6 13 12 53 14 88 2 35 12 78 21 95 9 18 16 34 16 38 0 3 -37 5
-83 5 -60 0 -89 -4 -106 -16z m217 -361 c13 -18 15 -78 6 -160 l-7 -52 -41 33
c-49 40 -105 69 -166 87 -25 7 -49 16 -54 20 -5 4 2 29 14 55 l23 47 106 -7
c83 -5 109 -10 119 -23z"/>
<path d="M7365 9073 c10 -43 8 -76 -9 -108 -9 -17 -16 -36 -16 -43 0 -8 -8
-26 -18 -40 -20 -30 -42 -97 -42 -130 0 -41 32 -102 61 -117 29 -16 129 -21
129 -7 0 4 -15 16 -34 26 -42 22 -70 83 -61 130 3 17 22 66 42 110 20 43 38
100 41 126 4 41 1 49 -19 64 -13 9 -36 16 -52 16 -27 0 -29 -2 -22 -27z"/>
<path d="M3205 9073 c-189 -40 -352 -146 -403 -263 -40 -91 -8 -237 66 -295
39 -32 121 -64 162 -65 35 0 53 -14 48 -36 -3 -16 -17 -20 -86 -28 l-83 -9
-33 32 c-17 17 -42 31 -54 31 -20 0 -22 -5 -22 -64 0 -36 3 -67 8 -70 7 -4
376 40 397 48 6 2 9 28 7 60 l-4 56 -41 10 c-108 28 -164 70 -203 155 -46 97
-23 204 61 290 57 59 123 88 237 106 163 25 275 -22 330 -139 56 -119 -24
-294 -169 -369 l-53 -28 0 -57 c0 -70 -21 -68 239 -28 107 17 199 30 203 30 5
0 6 10 4 23 -3 12 -8 44 -11 70 -6 42 -9 48 -27 45 -12 -2 -36 -23 -53 -48
-31 -44 -34 -45 -106 -57 -105 -17 -109 -16 -109 10 0 17 13 28 58 49 138 64
201 145 210 271 8 116 -33 184 -146 241 -26 13 -71 29 -100 35 -73 15 -243 12
-327 -6z"/>
<path d="M4885 9049 c-61 -14 -113 -38 -190 -90 -38 -26 -96 -63 -127 -83 -32
-20 -58 -40 -58 -46 0 -28 107 24 240 114 41 28 90 57 108 64 17 7 46 17 62
23 17 6 30 15 30 20 0 11 -11 10 -65 -2z"/>
<path d="M5035 8948 c4 -13 30 -59 58 -102 98 -151 182 -320 202 -408 24 -106
2 -250 -46 -304 -22 -24 -16 -34 21 -34 73 0 115 93 115 250 -1 101 2 93 -76
255 -37 79 -104 195 -117 205 -4 3 -13 17 -20 31 -33 63 -88 124 -116 127 -25
3 -27 1 -21 -20z"/>
<path d="M8579 8928 c-23 -45 -27 -110 -14 -199 4 -24 8 -51 9 -59 23 -179 77
-320 150 -394 69 -70 128 -92 177 -65 20 10 20 11 3 30 -9 10 -23 19 -30 19
-21 0 -91 76 -127 138 -34 59 -62 132 -71 187 -2 17 -9 59 -15 95 -14 88 -19
133 -26 209 -8 96 -22 106 -56 39z"/>
<path d="M9254 8626 c-48 -21 -102 -74 -160 -156 -29 -41 -73 -95 -98 -120
-71 -69 -54 -109 24 -56 35 23 79 75 164 192 27 38 61 71 88 85 69 39 54 87
-18 55z"/>
<path d="M10431 8234 c0 -11 3 -14 6 -6 3 7 2 16 -1 19 -3 4 -6 -2 -5 -13z"/>
<path d="M4905 8112 c-92 -6 -410 -70 -560 -112 -16 -5 -64 -17 -105 -28 -79
-21 -294 -88 -395 -123 -72 -26 -160 -90 -173 -127 -18 -53 8 -132 45 -132 10
0 12 12 7 49 -12 97 56 154 251 215 66 21 154 48 195 61 41 13 86 26 100 30
14 3 39 10 55 15 190 53 522 123 650 136 70 7 97 12 104 19 5 6 -68 5 -174 -3z"/>
<path d="M180 8050 c6 -11 13 -20 16 -20 2 0 0 9 -6 20 -6 11 -13 20 -16 20
-2 0 0 -9 6 -20z"/>
<path d="M7780 8061 c-8 -5 -95 -37 -192 -71 -116 -41 -178 -68 -178 -77 0 -9
7 -12 18 -9 9 2 42 8 72 12 45 5 53 4 44 -7 -6 -8 -29 -37 -50 -65 -133 -174
-177 -230 -254 -323 -130 -160 -202 -243 -205 -239 -10 11 -95 432 -88 438 4
4 36 23 71 41 34 18 58 37 54 41 -11 11 -463 -124 -459 -137 2 -6 27 -8 58 -6
30 2 65 4 78 5 24 1 26 -4 82 -264 39 -176 55 -268 48 -276 -5 -6 -36 -23 -69
-38 -59 -26 -78 -47 -42 -45 38 2 436 135 440 148 3 10 -3 12 -24 8 -16 -3
-51 -9 -78 -12 l-49 -7 44 52 c24 28 60 71 79 95 19 24 62 76 95 116 33 40
103 127 155 193 52 67 105 135 118 150 12 16 24 27 26 25 4 -4 85 -375 89
-408 2 -11 -77 -68 -118 -84 -5 -2 -7 -8 -3 -12 8 -8 87 18 289 97 163 63 171
82 23 52 l-31 -6 -12 64 c-7 34 -31 142 -52 238 -22 96 -42 187 -45 201 -5 24
0 31 55 64 34 21 61 42 61 46 0 11 -30 11 -50 0z"/>
<path d="M5206 8008 c-36 -59 -62 -449 -36 -563 12 -56 53 -144 81 -174 11
-11 19 -23 19 -26 0 -24 127 -105 164 -105 28 0 27 2 -37 65 -81 80 -132 178
-145 280 -11 87 -8 264 8 370 22 154 22 162 -3 169 -33 9 -35 8 -51 -16z"/>
<path d="M201 8004 c0 -11 3 -14 6 -6 3 7 2 16 -1 19 -3 4 -6 -2 -5 -13z"/>
<path d="M250 7909 c0 -21 84 -114 126 -139 43 -27 97 -40 115 -29 9 6 0 9
-26 9 -56 0 -123 49 -186 134 -16 21 -29 33 -29 25z"/>
<path d="M9250 7880 l-35 -7 28 -11 c33 -14 77 -6 77 14 0 15 -13 16 -70 4z"/>
<path d="M2451 7779 c-181 -15 -451 -65 -451 -84 0 -7 78 3 131 16 74 19 309
52 449 64 127 11 134 12 60 12 -47 0 -132 -4 -189 -8z"/>
<path d="M1060 7674 c155 -73 373 -120 505 -110 101 8 231 50 267 87 44 43 33
52 -19 15 -102 -72 -265 -103 -415 -79 -107 17 -240 55 -329 94 -93 40 -100
35 -9 -7z"/>
<path d="M2969 7548 c-34 -68 -85 -147 -106 -163 -31 -25 -47 -135 -19 -135 8
0 20 16 26 35 6 19 34 69 61 110 89 138 120 215 84 215 -8 0 -29 -28 -46 -62z"/>
<path d="M6114 7466 c-57 -18 -166 -78 -247 -138 -39 -28 -110 -71 -159 -95
-48 -25 -88 -50 -88 -55 0 -6 19 -9 48 -6 61 6 172 61 282 140 105 75 161 104
241 126 81 22 90 42 17 41 -29 0 -71 -6 -94 -13z"/>
<path d="M3920 7395 c0 -39 -103 -101 -230 -138 -197 -57 -262 -67 -415 -68
-124 -1 -143 -3 -110 -11 22 -6 105 -11 185 -11 125 0 159 3 245 26 224 58
312 93 361 142 20 20 22 26 11 49 -13 28 -47 36 -47 11z"/>
<path d="M6248 7378 c-3 -7 19 -40 47 -73 79 -93 100 -144 100 -240 -1 -112
-29 -227 -67 -270 -27 -31 -46 -39 -110 -49 -21 -3 -36 -16 -19 -16 7 0 10 -4
7 -8 -3 -5 19 -10 49 -11 151 -5 236 106 238 314 2 121 -13 180 -60 235 -19
22 -32 40 -28 40 10 0 -15 23 -64 58 -45 33 -86 41 -93 20z"/>
<path d="M270 7241 c0 -6 4 -13 10 -16 6 -3 7 1 4 9 -7 18 -14 21 -14 7z"/>
<path d="M370 7232 c0 -5 11 -14 25 -20 13 -6 31 -25 40 -42 9 -18 19 -29 23
-26 9 10 -52 90 -71 94 -9 2 -17 -1 -17 -6z"/>
<path d="M290 7200 c0 -6 7 -10 15 -10 8 0 15 2 15 4 0 2 -7 6 -15 10 -8 3
-15 1 -15 -4z"/>
<path d="M968 7015 c-46 -26 -37 -96 20 -157 l25 -27 -110 29 c-61 16 -152 45
-204 65 -137 53 -134 52 -119 26 13 -25 74 -54 197 -95 l81 -27 11 -63 c16
-91 15 -92 -33 -48 -58 53 -99 74 -143 70 -44 -4 -58 -24 -49 -70 21 -112 141
-200 238 -174 25 7 27 6 38 -51 10 -50 70 -166 70 -135 0 6 -18 100 -40 209
-42 210 -46 243 -29 243 10 0 101 -21 106 -25 1 0 19 -89 39 -196 31 -163 41
-201 67 -241 17 -27 33 -48 36 -48 4 0 -13 93 -36 208 -23 114 -42 220 -42
235 -1 27 1 28 34 21 34 -6 35 -5 27 17 -6 16 -20 26 -43 31 -46 9 -109 77
-109 117 0 64 80 69 199 11 45 -22 97 -51 115 -65 37 -28 56 -32 56 -11 0 20
-136 109 -207 137 -75 28 -159 35 -195 14z m-182 -304 c49 -34 96 -90 91 -105
-12 -36 -86 -40 -135 -8 -28 18 -62 82 -62 117 0 22 4 25 33 25 21 0 49 -11
73 -29z"/>
<path d="M4090 6941 c-21 -12 -352 -51 -438 -51 -72 0 -72 0 -72 -27 0 -16 27
-161 60 -323 32 -162 57 -297 54 -299 -2 -2 -29 -6 -59 -9 -46 -4 -55 -8 -55
-24 0 -10 8 -22 17 -25 29 -11 875 75 890 91 2 2 1 11 -3 20 -10 27 -41 38
-77 28 -18 -6 -49 -13 -69 -15 l-37 -6 -15 67 c-38 167 -106 524 -101 531 14
23 -67 59 -95 42z m-15 -93 c18 -81 22 -109 16 -112 -3 -2 -87 -14 -185 -26
-141 -17 -180 -19 -186 -9 -10 16 -23 119 -16 126 6 6 272 40 328 42 31 1 38
-3 43 -21z m47 -240 c12 -56 12 -64 -2 -70 -8 -5 -89 -16 -180 -27 -120 -13
-168 -15 -176 -7 -11 11 -36 118 -29 125 5 5 281 38 332 40 l41 1 14 -62z m38
-185 c6 -32 16 -73 20 -92 5 -19 7 -37 5 -40 -8 -7 -365 -44 -371 -38 -6 6
-45 179 -41 183 2 3 313 40 354 43 19 1 23 -7 33 -56z"/>
<path d="M7870 6930 c-36 -5 -96 -15 -135 -24 -38 -9 -103 -24 -145 -32 -128
-27 -229 -66 -435 -168 -176 -88 -295 -191 -295 -254 0 -41 44 -84 127 -124
69 -33 152 -101 149 -121 -4 -27 -25 -49 -86 -92 -214 -151 -507 -230 -1020
-275 -159 -13 -180 -18 -180 -37 0 -14 14 -15 108 -9 496 31 855 114 1093 252
174 101 225 170 164 219 -14 11 -33 27 -43 37 -9 9 -37 24 -62 34 -25 10 -51
24 -58 31 -7 7 -17 13 -21 13 -5 0 -20 12 -35 26 -35 36 -35 82 2 121 104 111
394 251 635 307 168 39 196 46 267 57 83 13 115 28 83 40 -21 9 -28 9 -113 -1z"/>
<path d="M2360 6915 c-25 -8 -84 -34 -132 -59 -72 -37 -144 -63 -168 -59 -3 0
-21 3 -40 7 l-35 6 40 -26 c54 -34 89 -28 217 35 136 66 180 81 244 81 60 0
80 14 33 24 -49 9 -110 6 -159 -9z"/>
<path d="M9110 6878 c-11 -18 -20 -37 -20 -41 0 -19 34 -124 51 -158 24 -49
33 -148 21 -234 -11 -74 -58 -189 -90 -218 -25 -22 -120 -47 -182 -47 -104 0
-246 -70 -322 -160 -70 -81 -130 -237 -132 -340 -1 -59 32 -158 56 -171 10 -6
23 -22 29 -36 8 -23 13 -24 46 -18 39 7 93 40 93 55 0 5 -13 16 -29 24 -32 17
-63 74 -82 148 -23 93 41 279 124 359 48 47 133 76 260 90 148 15 214 64 276
201 35 76 42 108 48 218 4 79 2 93 -36 209 -23 69 -46 130 -52 138 -18 21 -38
15 -59 -19z"/>
<path d="M340 6856 c0 -2 12 -18 27 -34 15 -17 45 -61 67 -98 23 -37 47 -70
54 -72 8 -2 -1 16 -20 41 -18 25 -50 72 -71 106 -21 34 -42 61 -48 61 -5 0 -9
-2 -9 -4z"/>
<path d="M7957 6842 c-10 -10 -17 -29 -17 -41 0 -26 -19 -67 -85 -180 -35 -59
-49 -95 -49 -120 0 -57 12 -87 38 -99 25 -11 103 -5 111 9 3 4 -6 20 -20 35
-36 39 -33 84 12 164 69 124 101 194 96 209 -14 41 -60 52 -86 23z"/>
<path d="M3134 6775 l6 -54 -57 -3 c-54 -3 -58 -5 -58 -28 l0 -25 124 4 124 4
-19 -34 c-28 -49 -105 -122 -174 -164 -33 -20 -60 -41 -60 -46 0 -18 46 -8
105 22 43 22 61 27 63 17 1 -7 17 -80 35 -163 l32 -150 50 3 c28 2 51 5 51 5
1 1 -10 58 -26 127 -50 230 -52 219 30 169 l50 -31 33 19 c44 26 46 48 5 59
l-32 10 47 27 c52 31 55 37 29 60 -28 26 -46 21 -89 -27 -33 -36 -45 -43 -67
-39 -32 6 -43 21 -21 29 8 4 27 26 41 49 14 24 31 49 39 55 24 20 18 37 -21
61 -30 18 -40 20 -55 11 -10 -7 -32 -12 -49 -12 -26 0 -30 3 -30 29 0 23 5 30
26 35 43 11 15 23 -65 29 l-74 6 7 -54z"/>
<path d="M5775 6766 c-70 -17 -135 -51 -195 -103 -56 -50 -71 -78 -89 -173 -6
-36 -17 -89 -22 -118 -16 -80 -20 -269 -7 -337 11 -60 64 -175 80 -175 15 0 8
-18 -9 -25 -10 -4 -54 -11 -98 -15 -98 -11 -530 -85 -605 -105 -30 -8 -86 -21
-125 -30 -87 -19 -75 -16 -283 -70 -246 -64 -317 -105 -315 -182 1 -28 8 -43
30 -60 44 -36 56 -31 49 20 -4 24 -4 51 0 60 18 49 153 98 479 176 465 110
611 136 943 165 52 4 69 17 50 37 -29 30 -56 77 -83 144 -27 69 -28 73 -22
225 6 181 36 345 72 402 55 83 153 129 313 144 66 6 99 17 69 23 -42 9 -190 6
-232 -3z"/>
<path d="M6041 6746 c2 -2 20 -6 39 -10 25 -4 31 -3 20 4 -14 9 -69 15 -59 6z"/>
<path d="M2670 6513 c0 -83 -28 -199 -55 -231 -33 -39 -81 -33 -227 28 -184
77 -298 81 -364 15 -27 -28 -34 -43 -35 -77 -1 -24 -3 -55 -5 -71 -5 -48 13
-20 20 30 8 57 28 84 85 114 36 19 53 21 114 16 73 -5 178 -38 268 -83 28 -14
72 -28 100 -31 45 -5 51 -3 76 24 36 38 48 86 52 195 2 67 -1 93 -13 110 -15
21 -16 20 -16 -39z"/>
<path d="M10043 6182 c-43 -82 -63 -132 -67 -167 -5 -49 -5 -49 10 -23 21 39
126 299 122 303 -2 2 -31 -49 -65 -113z"/>
<path d="M758 6284 c-9 -3 -19 -11 -21 -19 -4 -10 3 -12 31 -8 63 8 170 -24
292 -88 63 -34 135 -75 160 -93 69 -49 75 -52 54 -24 -37 50 -268 183 -374
216 -44 14 -120 22 -142 16z"/>
<path d="M800 6134 c0 -5 29 -54 65 -109 66 -101 88 -123 38 -37 -26 44 -90
142 -99 151 -2 2 -4 0 -4 -5z"/>
<path d="M561 6115 c22 -39 132 -165 177 -201 75 -61 162 -82 162 -39 0 13 -6
15 -31 10 -62 -14 -158 55 -284 205 -17 20 -27 31 -24 25z"/>
<path d="M1981 6094 c0 -11 3 -14 6 -6 3 7 2 16 -1 19 -3 4 -6 -2 -5 -13z"/>
<path d="M8855 6089 c-12 -19 5 -23 22 -6 16 16 16 17 1 17 -9 0 -20 -5 -23
-11z"/>
<path d="M1217 5931 c-9 -16 -17 -37 -17 -47 0 -17 1 -17 14 1 12 19 30 75 23
75 -1 0 -10 -13 -20 -29z"/>
<path d="M8050 5884 c-8 -3 -94 -37 -190 -74 -263 -102 -517 -190 -550 -190
-33 0 -41 25 -17 49 10 10 8 11 -8 5 -49 -18 -142 -104 -151 -140 -15 -61 57
-80 179 -48 76 19 371 125 584 210 89 35 166 64 171 64 10 0 22 -167 22 -312
0 -110 3 -114 69 -79 l35 19 -2 98 c-5 242 -14 355 -31 375 -16 21 -82 34
-111 23z"/>
<path d="M1290 5742 c0 -48 310 -189 545 -248 85 -21 298 -25 333 -6 47 27 5
51 -54 32 -34 -11 -215 -16 -231 -7 -5 3 -24 8 -43 11 -120 18 -429 142 -522
208 -16 11 -28 15 -28 10z"/>
<path d="M5748 5733 c-30 -7 -30 -35 1 -67 16 -17 46 -58 67 -91 20 -33 40
-62 44 -65 15 -12 68 -140 79 -189 17 -79 -18 -188 -83 -254 -49 -51 -110 -56
-331 -29 -94 11 -265 7 -320 -8 -156 -42 -227 -124 -229 -261 -1 -71 1 -80 32
-122 17 -25 32 -50 32 -55 0 -20 103 -102 141 -113 22 -7 41 -10 44 -7 3 2
-21 32 -53 65 -94 98 -125 186 -101 280 24 93 79 147 178 177 63 19 250 22
321 5 25 -6 95 -11 155 -12 118 -1 165 11 214 56 40 36 92 125 97 165 2 20 7
44 9 53 7 20 -10 103 -27 139 -18 37 -90 164 -97 170 -3 3 -26 32 -51 65 -66
89 -88 106 -122 98z"/>
<path d="M2480 5570 c-47 -5 -118 -8 -157 -9 -57 -1 -73 -4 -73 -16 0 -21 35
-27 126 -21 360 24 471 28 624 23 157 -6 349 -31 474 -63 56 -14 17 14 -49 36
-137 45 -267 59 -575 58 -157 -1 -323 -4 -370 -8z"/>
<path d="M932 5488 c2 -15 15 -29 39 -40 52 -24 96 -78 179 -218 101 -172 141
-233 147 -226 3 2 -9 30 -27 61 -18 31 -30 58 -27 61 2 3 31 -11 64 -30 48
-28 71 -52 122 -124 114 -164 115 -145 6 69 -58 112 -105 210 -105 216 0 18
37 2 164 -70 173 -98 250 -180 295 -315 26 -78 26 -118 0 -161 -20 -33 -20
-35 -3 -48 26 -19 40 -16 76 16 30 27 33 34 32 86 -4 153 -126 318 -340 458
-107 70 -325 182 -343 176 -7 -3 5 -39 32 -95 25 -49 48 -100 52 -113 7 -22 5
-22 -46 8 -67 38 -68 39 -138 146 -58 89 -114 145 -159 160 -21 6 -23 4 -20
-17z"/>
<path d="M3416 5378 c-9 -12 -16 -27 -16 -32 0 -5 -17 -32 -38 -60 -75 -101
-88 -136 -60 -164 20 -20 35 -14 47 19 6 18 27 52 47 76 54 66 97 153 83 170
-17 20 -46 16 -63 -9z"/>
<path d="M4376 5196 c-10 -40 -67 -66 -226 -101 -81 -18 -93 -20 -185 -31
-115 -13 -290 -4 -397 21 -34 8 -65 12 -70 9 -53 -33 159 -75 377 -75 127 0
425 53 504 90 52 24 81 44 81 57 0 16 -44 54 -62 54 -9 0 -19 -11 -22 -24z"/>
<path d="M8030 5044 c-115 -30 -371 -116 -449 -151 -238 -106 -412 -208 -451
-263 -27 -39 -18 -75 24 -94 51 -23 70 -29 80 -27 5 1 16 -4 25 -12 9 -8 24
-17 34 -20 30 -11 20 -45 -21 -71 -173 -109 -403 -184 -742 -242 -25 -4 -47
-8 -50 -9 -3 -1 -32 -4 -65 -9 -72 -9 -155 -34 -155 -47 0 -11 48 -6 260 28
177 28 393 79 515 122 153 55 374 177 389 217 7 18 -10 44 -29 44 -7 0 -18 7
-25 15 -7 8 -19 15 -27 15 -32 0 -113 43 -119 63 -11 36 78 106 230 180 224
110 341 153 576 212 117 29 135 35 160 55 l25 20 -45 -1 c-25 0 -88 -12 -140
-25z"/>
<path d="M2471 4994 c-1 -68 -24 -120 -56 -128 -26 -7 -55 4 -205 76 -194 94
-267 109 -309 64 -19 -20 -22 -31 -17 -60 7 -38 26 -50 26 -17 0 27 31 60 60
64 44 7 102 -13 255 -85 108 -52 164 -73 201 -76 l51 -4 21 44 c16 32 20 54
16 83 -3 22 -6 46 -7 52 0 7 -8 20 -17 28 -16 15 -17 12 -19 -41z"/>
<path d="M8095 4973 c-14 -15 -33 -43 -42 -60 -8 -18 -30 -48 -47 -65 -66 -67
-99 -118 -100 -156 -1 -36 0 -37 41 -40 37 -3 103 19 103 33 0 3 -9 14 -20 25
-11 11 -20 24 -20 29 0 8 31 50 131 176 44 56 46 79 7 83 -18 2 -34 -5 -53
-25z"/>
<path d="M4535 4970 l-40 -6 47 -8 c53 -9 93 -38 85 -60 -21 -53 -160 -72
-697 -96 -328 -14 -405 -13 -391 4 7 8 14 26 17 41 4 22 -1 28 -38 45 -47 21
-180 28 -208 10 -13 -8 -13 -12 3 -27 14 -14 34 -18 97 -18 91 1 103 -9 64
-54 -21 -25 -23 -34 -14 -50 6 -12 23 -24 37 -27 33 -9 505 3 703 16 226 16
247 15 362 -14 173 -43 248 -86 248 -142 0 -32 -71 -78 -145 -95 -75 -17 -310
-6 -402 18 -70 19 -72 19 -108 1 -142 -73 -419 -83 -505 -18 -38 29 -14 44 78
48 91 4 137 -9 129 -37 -6 -24 32 -34 64 -17 80 40 -34 105 -184 106 -164 0
-225 -64 -129 -137 68 -52 137 -68 282 -67 126 0 183 12 292 58 35 15 43 14
120 -4 278 -67 587 -5 604 121 4 29 0 41 -23 66 -50 53 -153 100 -288 130
l-40 9 53 24 c93 40 130 114 77 153 -31 22 -98 34 -150 27z m-1112 -92 c-17
-8 -29 -8 -45 0 -20 9 -18 11 22 11 40 0 42 -2 23 -11z"/>
<path d="M1465 4711 c-6 -11 25 -31 48 -31 36 0 313 -145 470 -246 68 -45 83
-51 73 -35 -16 26 -333 208 -492 283 -90 42 -90 42 -99 29z"/>
<path d="M5840 4686 c-95 -20 -151 -41 -277 -102 -61 -29 -130 -58 -153 -63
-56 -13 -71 -28 -36 -37 47 -11 106 5 239 67 179 84 227 99 340 106 54 3 100
10 103 15 3 4 2 8 -3 9 -4 0 -17 3 -28 5 -54 12 -126 12 -185 0z"/>
<path d="M2182 4581 c41 -51 92 -74 151 -67 203 22 220 20 355 -33 77 -31 52
-5 -32 34 -108 50 -190 61 -305 39 -71 -14 -76 -13 -118 7 -25 12 -47 28 -50
35 -3 8 -10 14 -15 14 -5 0 1 -13 14 -29z"/>
<path d="M5943 4594 c-5 -13 35 -65 88 -114 11 -10 68 -97 93 -142 14 -26 26
-62 26 -80 0 -43 -46 -138 -68 -139 -10 -1 -33 -3 -52 -5 -19 -2 -80 -8 -135
-14 -55 -5 -116 -13 -135 -16 -91 -14 -393 -66 -460 -78 -41 -8 -140 -26 -220
-41 -255 -46 -331 -64 -373 -87 -51 -28 -56 -49 -23 -83 30 -30 81 -35 73 -7
-2 9 -6 23 -8 31 -8 28 89 69 206 87 17 3 111 21 210 40 99 20 189 37 200 38
11 2 115 20 230 39 116 20 244 39 285 43 41 3 86 8 100 9 14 2 57 4 97 4 62 1
76 4 103 27 17 15 37 39 46 55 18 36 34 118 24 124 -4 3 -10 19 -14 36 -8 44
-95 163 -183 252 -28 28 -46 37 -71 37 -20 0 -35 -6 -39 -16z"/>
<path d="M1700 4475 c35 -36 67 -65 69 -65 3 0 -24 29 -59 65 -35 36 -67 65
-69 65 -3 0 24 -29 59 -65z"/>
<path d="M1665 4450 c8 -13 65 -43 71 -37 6 6 -15 20 -49 35 -16 7 -26 8 -22
2z"/>
<path d="M1974 4364 c-4 -17 -1 -31 9 -41 15 -15 17 -14 28 10 9 21 9 30 -1
42 -18 22 -29 19 -36 -11z"/>
<path d="M2105 4230 c42 -47 394 -198 572 -246 98 -26 259 -42 306 -30 51 13
34 109 -32 170 -33 32 -41 25 -15 -13 20 -27 21 -111 2 -123 -21 -13 -129 -9
-217 7 -147 28 -456 148 -583 225 -43 26 -49 28 -33 10z"/>
<path d="M6065 4046 c-39 -17 -49 -30 -69 -89 -29 -87 -40 -212 -20 -225 6 -4
13 -15 17 -24 16 -44 144 -93 193 -74 14 5 7 13 -34 39 -68 41 -87 80 -78 161
3 34 17 96 30 138 29 94 25 102 -39 74z"/>
<path d="M3090 3963 c0 -12 89 -19 325 -28 211 -8 270 -13 420 -31 96 -12 175
-25 236 -40 37 -9 78 -14 90 -12 37 6 -89 43 -211 62 -224 34 -860 70 -860 49z"/>
<path d="M2963 3902 c-25 -16 76 -175 128 -203 14 -7 9 5 -17 43 -21 29 -48
78 -60 108 -24 57 -31 65 -51 52z"/>
<path d="M6805 3870 c-85 -22 -178 -58 -265 -100 -96 -48 -160 -71 -209 -79
-59 -8 -67 -31 -12 -31 55 0 137 29 296 102 72 33 162 67 200 75 108 22 145
33 145 43 0 16 -79 11 -155 -10z"/>
<path d="M4060 3810 c0 -5 -22 -33 -50 -61 -54 -55 -60 -73 -31 -89 32 -16 61
-12 61 9 0 10 13 29 28 42 15 13 38 37 51 54 21 28 21 30 5 42 -21 15 -64 17
-64 3z"/>
<path d="M4955 3762 c6 -6 24 -13 40 -17 21 -4 25 -3 15 3 -24 15 -67 26 -55
14z"/>
<path d="M4901 3687 c-7 -18 -22 -26 -68 -37 -202 -45 -458 -47 -660 -4 -47 9
-42 -13 5 -25 167 -45 560 -37 742 15 89 26 102 44 41 62 -50 16 -50 16 -60
-11z"/>
<path d="M3275 3620 c10 -11 48 -35 84 -53 l66 -32 200 0 c198 -1 201 -1 290
-32 102 -36 124 -36 43 0 -119 53 -268 70 -439 52 -76 -9 -111 0 -202 52 -45
25 -56 29 -42 13z"/>
<path d="M3938 3433 c40 -35 67 -97 49 -111 -15 -12 -11 -12 -216 37 -165 40
-264 51 -276 31 -9 -14 85 -104 135 -130 48 -25 64 -21 23 5 -39 25 -94 86
-90 99 7 21 112 8 275 -33 174 -43 225 -47 230 -15 4 33 -34 80 -91 113 -67
38 -79 39 -39 4z"/>
<path d="M3750 3190 c0 -5 7 -7 15 -4 8 4 15 8 15 10 0 2 -7 4 -15 4 -8 0 -15
-4 -15 -10z"/>
<path d="M3839 3192 c11 -8 11 -10 0 -14 -10 -3 -10 -6 -1 -12 7 -4 12 -3 12
2 0 5 25 4 57 -4 31 -7 59 -11 62 -9 4 5 1 6 -68 25 -23 6 -50 14 -60 17 -12
4 -13 3 -2 -5z"/>
<path d="M3980 3149 c0 -5 4 -8 9 -5 4 3 35 1 67 -4 32 -5 199 -23 369 -40
340 -34 375 -39 306 -52 -53 -9 -73 -24 -51 -38 8 -5 25 -10 37 -10 28 0 83
31 83 48 0 6 12 13 28 13 59 3 -61 18 -373 49 -176 17 -349 35 -385 40 -83 12
-90 12 -90 -1z"/>
<path d="M4105 3100 c-3 -5 -1 -10 4 -10 6 0 11 5 11 10 0 6 -2 10 -4 10 -3 0
-8 -4 -11 -10z"/>
<path d="M4135 3090 c-3 -5 -1 -10 4 -10 6 0 11 5 11 10 0 6 -2 10 -4 10 -3 0
-8 -4 -11 -10z"/>
<path d="M4827 3003 c-3 -5 14 -8 38 -8 24 0 41 3 39 7 -7 10 -71 10 -77 1z"/>
<path d="M4698 2983 c7 -3 16 -2 19 1 4 3 -2 6 -13 5 -11 0 -14 -3 -6 -6z"/>
<path d="M2470 2819 c-77 -13 -191 -70 -240 -119 -66 -66 -95 -138 -95 -240 0
-73 4 -93 28 -141 30 -62 103 -136 163 -167 82 -42 154 -56 279 -56 174 0 271
32 367 122 68 64 100 129 106 218 11 173 -84 302 -269 364 -74 25 -250 35
-339 19z m232 -174 c73 -26 138 -109 138 -179 0 -137 -139 -228 -296 -196 -64
13 -128 63 -151 117 -18 44 -16 118 4 160 44 93 184 139 305 98z"/>
<path d="M3260 2400 l0 -420 -580 0 -580 0 0 -90 0 -90 210 0 210 0 0 -280 0
-280 125 0 125 0 0 280 0 280 245 0 245 0 0 -295 0 -295 125 0 125 0 0 805 0
805 -125 0 -125 0 0 -420z"/>
<path d="M4990 2010 l0 -810 125 0 125 0 0 810 0 810 -125 0 -125 0 0 -810z"/>
<path d="M6370 2360 l0 -460 125 0 125 0 0 175 0 175 65 0 65 0 0 -175 0 -175
125 0 125 0 0 460 0 460 -125 0 -125 0 0 -190 0 -190 -65 0 -65 0 0 190 0 190
-125 0 -125 0 0 -460z"/>
<path d="M8420 2160 l0 -660 -340 0 -340 0 0 375 0 375 -125 0 -125 0 0 -375
0 -375 -100 0 -100 0 0 -95 0 -95 565 0 565 0 0 -55 0 -55 125 0 125 0 0 410
0 410 85 0 85 0 0 95 0 95 -85 0 -85 0 0 305 0 305 -125 0 -125 0 0 -660z"/>
<path d="M5600 2443 c0 -197 4 -375 9 -396 5 -22 20 -50 33 -64 48 -53 72 -57
356 -61 l262 -4 0 441 0 441 -120 0 -120 0 0 -110 0 -110 -90 0 -90 0 0 110 0
110 -120 0 -120 0 0 -357z m420 -193 l0 -150 -90 0 -90 0 0 150 0 150 90 0 90
0 0 -150z"/>
<path d="M3880 2700 l0 -90 295 0 295 0 0 -165 0 -165 -280 0 -280 0 0 -90 0
-90 265 0 c168 0 265 -4 265 -10 0 -5 -13 -52 -30 -103 -49 -153 -133 -273
-258 -368 -64 -48 -272 -159 -299 -159 -7 0 -13 -3 -13 -7 0 -5 63 -101 86
-132 11 -14 269 105 364 168 77 50 195 165 242 234 142 210 188 417 188 860
l0 207 -420 0 -420 0 0 -90z"/>
<path d="M7340 2695 l0 -95 305 0 305 0 0 -334 c0 -336 -10 -475 -44 -618
l-13 -56 114 -22 c62 -13 116 -21 118 -18 9 9 44 183 55 278 7 52 14 290 17
528 l6 432 -432 0 -431 0 0 -95z"/>
<path d="M5690 1720 l0 -90 525 0 525 0 0 -215 0 -215 125 0 125 0 0 305 0
305 -650 0 -650 0 0 -90z"/>
<path d="M533 1059 c-179 -30 -302 -146 -278 -262 18 -86 83 -149 194 -189 69
-25 249 -35 335 -19 114 21 215 83 253 156 21 38 20 122 0 162 -63 121 -286
188 -504 152z m269 -115 c29 -10 59 -29 78 -50 56 -65 33 -137 -60 -182 -49
-24 -66 -27 -160 -27 -120 0 -179 17 -226 66 -34 35 -39 90 -11 132 49 75 237
105 379 61z"/>
<path d="M5058 1057 c-48 -14 -62 -22 -111 -66 -104 -93 -115 -303 -24 -423
50 -65 125 -99 218 -99 87 0 128 11 181 47 172 120 150 435 -38 524 -58 27
-162 35 -226 17z m127 -97 c26 0 81 -59 93 -98 18 -61 15 -160 -8 -209 -34
-76 -119 -105 -187 -63 -45 27 -65 73 -71 158 -5 82 13 144 52 181 25 24 73
42 94 35 8 -2 20 -4 27 -4z"/>
<path d="M10190 950 l0 -120 -85 0 -85 0 0 -55 0 -55 85 0 85 0 0 -190 0 -190
75 0 75 0 0 365 0 365 -75 0 -75 0 0 -120z"/>
<path d="M1980 675 l0 -385 -260 0 -260 0 0 145 0 145 180 0 180 0 0 235 0
235 -255 0 -255 0 0 -55 0 -55 180 0 180 0 0 -125 0 -125 -181 0 -180 0 3
-220 3 -220 26 -25 c14 -15 43 -30 65 -35 21 -5 159 -10 307 -10 l267 0 0 -55
0 -55 75 0 75 0 0 495 0 495 -75 0 -75 0 0 -385z"/>
<path d="M5550 655 l0 -405 -360 0 -360 0 0 -60 0 -60 360 0 360 0 0 -35 0
-35 75 0 75 0 0 500 0 500 -75 0 -75 0 0 -405z"/>
<path d="M6290 835 c0 -243 6 -281 52 -306 15 -9 77 -15 191 -17 l167 -4 0
276 0 276 -75 0 -75 0 0 -70 0 -70 -55 0 -55 0 0 70 0 70 -75 0 -75 0 0 -225z
m260 -120 l0 -95 -55 0 -55 0 0 95 0 95 55 0 55 0 0 -95z"/>
<path d="M6760 780 l0 -280 75 0 75 0 0 105 0 105 45 0 45 0 0 -105 0 -105 75
0 75 0 0 280 0 280 -75 0 -75 0 0 -115 0 -115 -45 0 -45 0 0 115 0 115 -75 0
-75 0 0 -280z"/>
<path d="M8030 655 l0 -405 -210 0 -210 0 0 235 0 235 -75 0 -75 0 0 -235 0
-235 -60 0 -60 0 0 -60 0 -60 345 0 345 0 0 -35 0 -35 75 0 75 0 0 260 0 260
50 0 50 0 0 55 0 55 -50 0 -50 0 0 185 0 185 -75 0 -75 0 0 -405z"/>
<path d="M9110 560 l0 -500 75 0 75 0 0 240 0 240 50 0 50 0 0 60 0 60 -50 0
-50 0 0 200 0 200 -75 0 -75 0 0 -500z"/>
<path d="M2750 848 c0 -112 5 -220 11 -240 19 -71 26 -73 432 -76 l357 -3 0
261 0 260 -400 0 -400 0 0 -202z m650 -58 l0 -150 -250 0 -250 0 0 150 0 150
250 0 250 0 0 -150z"/>
<path d="M3822 862 c3 -214 9 -233 75 -251 23 -7 173 -11 381 -11 l342 0 0 55
0 55 -325 0 -325 0 0 115 0 115 320 0 320 0 0 55 0 55 -396 0 -396 0 4 -188z"/>
<path d="M7370 990 l0 -60 185 0 185 0 0 -227 c-1 -151 -5 -255 -15 -308 -8
-43 -12 -81 -10 -83 6 -7 127 -33 131 -30 2 2 11 46 19 98 11 64 18 188 22
383 l6 287 -262 0 -261 0 0 -60z"/>
<path d="M8620 837 c0 -241 -6 -274 -71 -396 -42 -78 -81 -133 -136 -191 l-33
-36 39 -38 39 -38 59 59 c71 68 125 151 157 234 21 56 36 68 36 28 0 -9 18
-52 40 -95 40 -80 108 -167 159 -204 l29 -20 42 38 43 38 -52 55 c-66 68 -134
170 -169 251 -26 61 -27 69 -30 296 l-3 232 -75 0 -74 0 0 -213z"/>
<path d="M9520 995 l0 -55 95 0 95 0 0 -43 c0 -127 -80 -260 -202 -335 l-37
-23 27 -39 c17 -25 32 -37 42 -34 43 14 131 76 186 129 l62 60 65 -61 c57 -55
174 -134 196 -134 9 0 66 79 60 83 -160 101 -226 193 -244 340 l-7 57 101 0
101 0 0 55 0 55 -270 0 -270 0 0 -55z"/>
<path d="M3080 370 l0 -130 -190 0 -190 0 0 -55 0 -55 450 0 450 0 0 55 0 55
-185 0 -185 0 0 130 0 130 -75 0 -75 0 0 -130z"/>
<path d="M210 435 l0 -55 185 0 185 0 0 -155 0 -155 75 0 75 0 0 155 0 155
185 0 185 0 0 55 0 55 -445 0 -445 0 0 -55z"/>
<path d="M3780 435 l0 -55 185 0 185 0 0 -155 0 -155 75 0 75 0 0 155 0 155
185 0 185 0 0 55 0 55 -445 0 -445 0 0 -55z"/>
<path d="M6350 385 l0 -55 325 0 325 0 0 -130 0 -130 75 0 75 0 0 185 0 185
-400 0 -400 0 0 -55z"/>
<path d="M9571 271 c4 -145 12 -163 78 -181 21 -6 176 -10 364 -10 l327 0 0
55 0 55 -310 0 -310 0 0 105 0 105 -76 0 -76 0 3 -129z"/>
</g>
</svg>
