<?xml version="1.0" standalone="no"?>
<!DOCTYPE svg PUBLIC "-//W3C//DTD SVG 20010904//EN"
 "http://www.w3.org/TR/2001/REC-SVG-20010904/DTD/svg10.dtd">
<svg version="1.0" xmlns="http://www.w3.org/2000/svg"
 width="1023.000000pt" height="1024.000000pt" viewBox="0 0 1023.000000 1024.000000"
 preserveAspectRatio="xMidYMid meet">

<g transform="translate(0.000000,1024.000000) scale(0.100000,-0.100000)"
fill="#000000" stroke="none">
<path d="M4810 8029 c-1156 -130 -2105 -894 -2469 -1987 -99 -297 -145 -590
-145 -922 0 -331 46 -626 145 -924 363 -1092 1329 -1866 2479 -1986 142 -15
487 -12 630 5 1101 129 2024 855 2408 1895 158 427 213 911 156 1374 -155
1259 -1109 2274 -2359 2511 -224 42 -628 58 -845 34z m680 -232 c399 -57 782
-203 1110 -422 170 -113 272 -197 421 -345 431 -428 696 -969 774 -1583 20
-156 20 -498 0 -654 -55 -423 -191 -800 -415 -1141 -434 -664 -1098 -1090
-1882 -1208 -142 -21 -474 -29 -623 -15 -651 62 -1212 326 -1670 785 -383 385
-637 860 -739 1381 -65 332 -63 742 5 1070 120 581 433 1115 880 1499 423 364
893 569 1464 641 139 18 527 13 675 -8z"/>
<path d="M3481 6764 c-32 -27 -48 -76 -36 -116 4 -12 345 -362 758 -775 l752
-753 -752 -752 c-413 -414 -754 -764 -758 -776 -24 -83 57 -164 140 -140 21 6
255 233 780 758 l750 750 745 -746 c451 -451 758 -752 778 -760 87 -38 184 65
141 149 -6 12 -347 358 -758 770 l-746 747 746 748 c411 411 752 757 758 769
21 42 13 83 -23 119 -29 29 -41 34 -82 34 l-49 0 -755 -755 -755 -755 -755
755 -755 755 -47 0 c-35 0 -54 -6 -77 -26z"/>
</g>
</svg>
